Coordinates
version=1
nRows=14
nColumns=63
inDegrees=yes

Units are S.I. units (second, meters, Newtons, ...)
If the header above contains a line with 'inDegrees', this indicates whether rotational values are in degrees (yes) or radians (no).

endheader
time	pelvis_tilt	pelvis_list	pelvis_rotation	pelvis_tx	pelvis_ty	pelvis_tz	hip_flexion_r	hip_adduction_r	hip_rotation_r	knee_angle_r	knee_angle_r_beta	ankle_angle_r	subtalar_angle_r	mtp_angle_r	hip_flexion_l	hip_adduction_l	hip_rotation_l	knee_angle_l	knee_angle_l_beta	ankle_angle_l	subtalar_angle_l	mtp_angle_l	L5_S1_Flex_Ext	L5_S1_Lat_Bending	L5_S1_axial_rotation	L4_L5_Flex_Ext	L4_L5_Lat_Bending	L4_L5_axial_rotation	L3_L4_Flex_Ext	L3_L4_Lat_Bending	L3_L4_axial_rotation	L2_L3_Flex_Ext	L2_L3_Lat_Bending	L2_L3_axial_rotation	L1_L2_Flex_Ext	L1_L2_Lat_Bending	L1_L2_axial_rotation	L1_T12_Flex_Ext	L1_T12_Lat_Bending	L1_T12_axial_rotation	Abs_r3	Abs_r2	Abs_r1	Abs_t1	Abs_t2	neck_flexion	neck_bending	neck_rotation	arm_flex_r	arm_add_r	arm_rot_r	elbow_flex_r	pro_sup_r	wrist_flex_r	wrist_dev_r	arm_flex_l	arm_add_l	arm_rot_l	elbow_flex_l	pro_sup_l	wrist_flex_l	wrist_dev_l
1.301887	7.808180	-9.079536	91.924931	0.415085	0.738174	0.731967	19.929372	1.841544	-4.225893	15.313896	0.267278	17.004089	-17.359341	0.000000	13.707613	-2.112236	-3.817870	0.555248	0.009691	29.221716	14.984770	0.000000	0.029460	0.452831	-0.206712	0.054710	0.602265	-0.219631	0.048399	1.101013	-0.219631	0.033669	1.101013	-0.180873	0.027356	0.923413	-0.167953	0.016833	0.701435	-0.155034	0.210427	5.122512	-1.149669	0.000000	0.000000	27.278321	-10.090992	-17.146902	8.393036	-21.377396	55.117445	26.991310	81.150373	-10.728493	3.165111	7.102706	-11.602157	136.973306	1.647631	6.822718	-12.606971	-7.138705
1.320755	7.893248	-9.285330	91.873959	0.414705	0.737707	0.732282	20.476958	1.900437	-3.907475	15.870849	0.276999	17.364993	-17.305536	0.000000	13.971191	-2.184219	-4.122006	0.569980	0.009948	28.936680	15.085155	0.000000	0.056748	0.461166	-0.180355	0.105387	0.613351	-0.191628	0.093232	1.121280	-0.191628	0.064858	1.121280	-0.157811	0.052696	0.940410	-0.146539	0.032426	0.714347	-0.135267	0.405348	5.216806	-1.003083	0.000000	0.000000	27.450380	-10.261813	-17.251775	8.217240	-21.601709	54.090177	26.940170	81.034452	-11.621217	2.586385	7.502561	-11.880701	131.874689	1.733067	5.769972	-10.580664	-8.088334
1.339623	7.981512	-9.497488	91.768602	0.414472	0.737201	0.732802	21.050169	1.990781	-3.477513	16.430938	0.286774	17.756596	-17.265921	0.000000	14.245617	-2.280157	-4.507313	0.584675	0.010205	28.513622	15.142061	0.000000	0.082171	0.468405	-0.142696	0.152601	0.622979	-0.151615	0.134999	1.138880	-0.151615	0.093914	1.138880	-0.124859	0.076304	0.955172	-0.115941	0.046953	0.725560	-0.107022	0.586942	5.298693	-0.793634	0.000000	0.000000	27.602628	-10.393491	-17.602345	8.013037	-21.822033	53.116624	26.846180	80.384716	-12.414129	1.779524	7.987734	-12.179701	126.838816	1.877434	4.940510	-8.805869	-9.080470
1.358491	8.079567	-9.714485	91.633360	0.414322	0.736671	0.733515	21.638177	2.110186	-2.983684	16.978498	0.296331	18.133208	-17.258313	0.000000	14.535219	-2.400222	-4.973687	0.602769	0.010520	27.999442	15.219500	0.000000	0.105595	0.476639	-0.101821	0.196101	0.633930	-0.108185	0.173483	1.158900	-0.108185	0.120685	1.158900	-0.089093	0.098056	0.971962	-0.082729	0.060337	0.738313	-0.076366	0.754257	5.391833	-0.566296	0.000000	0.000000	27.758497	-10.459051	-18.085491	7.816082	-22.043971	52.370471	26.697882	79.048227	-13.034666	0.782222	8.561491	-12.482551	122.537601	2.036986	3.733601	-7.289726	-10.080867
1.377358	8.185818	-9.927439	91.458659	0.414225	0.736149	0.734356	22.216551	2.257425	-2.442284	17.494888	0.305343	18.473337	-17.275559	0.000000	14.822270	-2.540900	-5.471829	0.619075	0.010805	27.429213	15.277318	0.000000	0.127074	0.486713	-0.060205	0.235988	0.647328	-0.063967	0.208769	1.183393	-0.063967	0.145232	1.183393	-0.052679	0.118001	0.992505	-0.048916	0.072610	0.753918	-0.045153	0.907674	5.505791	-0.334840	0.000000	0.000000	27.907400	-10.480341	-18.652942	7.677812	-22.273266	52.100944	26.477283	76.798340	-13.496547	-0.390465	9.216551	-12.774022	118.726605	2.226889	2.676896	-6.147452	-11.044608
1.396226	8.308686	-10.129015	91.291727	0.414085	0.735643	0.735269	22.759645	2.421098	-1.921006	17.959834	0.313458	18.740556	-17.303412	0.000000	15.102581	-2.695880	-5.927328	0.634140	0.011068	26.826704	15.297383	0.000000	0.147854	0.500971	-0.032424	0.274580	0.666291	-0.034451	0.242910	1.218061	-0.034451	0.168983	1.218061	-0.028371	0.137298	1.021580	-0.026345	0.084484	0.776004	-0.024318	1.056109	5.667084	-0.180333	0.000000	0.000000	28.036437	-10.438159	-19.158138	7.622603	-22.515369	52.337693	26.196765	73.710371	-13.773089	-1.659969	9.939457	-13.029959	115.793544	2.386489	1.948742	-5.366457	-11.744298
1.415094	8.435977	-10.286621	91.096881	0.413949	0.735204	0.736184	23.214703	2.602136	-1.390700	18.350150	0.320271	18.941745	-17.330208	0.000000	15.327953	-2.859756	-6.369025	0.646759	0.011288	26.273528	15.296589	0.000000	0.164338	0.517919	-0.007511	0.305191	0.688832	-0.007980	0.269990	1.259268	-0.007980	0.187822	1.259268	-0.006572	0.152604	1.056140	-0.006103	0.093903	0.802256	-0.005633	1.173847	5.858803	-0.041774	0.000000	0.000000	28.122863	-10.398412	-19.676808	7.633365	-22.744951	52.979848	25.830485	69.895853	-13.834518	-2.981027	10.753084	-13.242151	113.944391	2.524647	1.589841	-5.019527	-12.135753
1.433962	8.579308	-10.387354	90.936194	0.413711	0.734847	0.737024	23.565944	2.784800	-0.958849	18.679166	0.326013	19.041770	-17.365860	0.000000	15.488753	-3.029646	-6.723687	0.661379	0.011543	25.786371	15.277274	0.000000	0.177510	0.540479	-0.001017	0.329653	0.718836	-0.001080	0.291631	1.314120	-0.001080	0.202876	1.314120	-0.000890	0.164835	1.102144	-0.000826	0.101429	0.837201	-0.000763	1.267934	6.114001	-0.005656	0.000000	0.000000	28.157851	-10.346044	-19.994247	7.748020	-22.979209	54.095465	25.402019	65.415469	-13.683660	-4.299289	11.628271	-13.400457	113.267735	2.606147	1.615176	-5.018256	-12.104299
1.452830	8.749524	-10.410585	90.814311	0.413320	0.734596	0.737700	23.771535	2.976861	-0.647055	18.919311	0.330204	19.060993	-17.395904	0.000000	15.552168	-3.212945	-7.044185	0.671406	0.011718	25.377710	15.277085	0.000000	0.185191	0.570378	-0.010923	0.343918	0.758603	-0.011605	0.304250	1.386818	-0.011605	0.211655	1.386818	-0.009557	0.171968	1.163115	-0.008875	0.105818	0.883516	-0.008192	1.322802	6.452233	-0.060748	0.000000	0.000000	28.157617	-10.256680	-20.036338	7.881604	-23.221010	55.183050	24.986360	61.055420	-13.328183	-5.460921	12.544051	-13.499354	113.386095	2.645089	1.986992	-5.345781	-11.872387
1.471698	8.935634	-10.383766	90.723372	0.412771	0.734413	0.738103	23.858261	3.165637	-0.437048	19.084137	0.333081	18.971090	-17.419348	0.000000	15.538499	-3.396810	-7.326105	0.686113	0.011975	25.053704	15.268127	0.000000	0.193378	0.605303	-0.031777	0.359123	0.805053	-0.033763	0.317701	1.471734	-0.033763	0.221012	1.471734	-0.027805	0.179571	1.234334	-0.025819	0.110496	0.937614	-0.023833	1.381281	6.847308	-0.176736	0.000000	0.000000	28.132740	-10.168760	-19.943159	8.059365	-23.486417	56.530458	24.564781	56.739965	-12.901410	-6.585150	13.469504	-13.540366	114.289770	2.622353	2.351942	-5.760405	-11.541827
1.490566	9.147290	-10.272611	90.687125	0.412031	0.734338	0.738154	23.774801	3.356299	-0.354610	19.150597	0.334241	18.776889	-17.462141	0.000000	15.405121	-3.588209	-7.588605	0.697559	0.012175	24.829908	15.319697	0.000000	0.196599	0.646670	-0.066805	0.365105	0.860071	-0.070981	0.322993	1.572313	-0.070981	0.224693	1.572313	-0.058455	0.182562	1.318689	-0.054279	0.112337	1.001691	-0.050104	1.404289	7.315257	-0.371551	0.000000	0.000000	28.096962	-10.043587	-19.573363	8.225919	-23.796793	57.658555	24.208888	53.119011	-12.418562	-7.458960	14.376257	-13.520395	115.853114	2.539180	2.494923	-6.152326	-11.235499
1.509434	9.382607	-10.086695	90.731508	0.411057	0.734361	0.737847	23.534908	3.538253	-0.413275	19.122721	0.333754	18.505368	-17.514313	0.000000	15.166512	-3.777515	-7.681891	0.705598	0.012315	24.691950	15.260215	0.000000	0.195764	0.694123	-0.122272	0.363554	0.923184	-0.129914	0.321621	1.687692	-0.129914	0.223739	1.687692	-0.106988	0.181787	1.415456	-0.099346	0.111860	1.075197	-0.091704	1.398325	7.852062	-0.680040	0.000000	0.000000	28.066422	-9.867508	-18.873927	8.471443	-24.138329	59.095163	23.874564	49.895652	-11.898522	-8.120649	15.236303	-13.449511	117.493371	2.457646	2.625393	-6.438106	-10.945665
1.528302	9.617412	-9.853663	90.820554	0.409966	0.734447	0.737198	23.187265	3.701703	-0.552289	19.027221	0.332088	18.210192	-17.587946	0.000000	14.848281	-3.949492	-7.632636	0.708530	0.012366	24.652284	15.111718	0.000000	0.194328	0.742711	-0.186175	0.360886	0.987806	-0.197811	0.319261	1.805829	-0.197811	0.222097	1.805829	-0.162903	0.180453	1.514537	-0.151267	0.111039	1.150460	-0.139631	1.388065	8.401700	-1.035450	0.000000	0.000000	28.027625	-9.721002	-18.034255	8.814452	-24.477753	61.048585	23.488343	47.052668	-11.467708	-8.593454	16.039395	-13.335653	119.164993	2.355232	2.720032	-6.468448	-10.598063
1.547170	9.850945	-9.570245	90.961575	0.408759	0.734603	0.736196	22.727394	3.849964	-0.758312	18.849896	0.328993	17.940871	-17.660749	0.000000	14.451407	-4.105043	-7.452339	0.704931	0.012303	24.712343	14.893540	0.000000	0.191846	0.792406	-0.258608	0.356278	1.053899	-0.274771	0.315185	1.926655	-0.274771	0.219261	1.926655	-0.226282	0.178149	1.615873	-0.210119	0.109621	1.227436	-0.193956	1.370340	8.963850	-1.438300	0.000000	0.000000	27.986811	-9.580349	-16.963430	9.210683	-24.808002	63.324867	23.060481	44.625293	-11.116327	-8.822445	16.769550	-13.183412	120.658104	2.264664	2.778655	-6.244634	-10.152297
